<svg xmlns="http://www.w3.org/2000/svg" viewBox="0 0 1280 640">
  <rect width="1280" height="640" fill="#f7f8fa"/>
  <path d="M80 80h1120v480H80z" fill="#ffffff" stroke="#d9dee8" stroke-width="2"/>
  <path d="M120 128h1040M120 512h1040" stroke="#e6eaf0" stroke-width="2"/>
  <text x="120" y="134" fill="#667085" font-family="Inter, Arial, sans-serif" font-size="22" letter-spacing="0">Moonweave Research</text>
  <g transform="translate(136 154) scale(.82)">
    <rect x="102" y="104" width="308" height="304" rx="28" fill="#ffffff" stroke="#1f2937" stroke-width="18"/>
    <path d="M204 104v304M308 104v304" stroke="#d9dee8" stroke-width="12"/>
    <rect x="136" y="150" width="34" height="210" rx="12" fill="#2f5f9f"/>
    <rect x="240" y="150" width="34" height="142" rx="12" fill="#667085"/>
    <rect x="344" y="150" width="34" height="78" rx="12" fill="#2f6f5f"/>
    <path d="M136 374h242" stroke="#2f6f5f" stroke-width="14" stroke-linecap="round"/>
    <circle cx="170" cy="374" r="16" fill="#ffffff" stroke="#2f5f9f" stroke-width="8"/>
    <circle cx="274" cy="374" r="16" fill="#ffffff" stroke="#667085" stroke-width="8"/>
    <circle cx="378" cy="374" r="16" fill="#ffffff" stroke="#2f6f5f" stroke-width="8"/>
  </g>
  <text x="560" y="238" fill="#111827" font-family="Inter, Arial, sans-serif" font-size="70" font-weight="760">Zotero</text>
  <text x="560" y="310" fill="#111827" font-family="Inter, Arial, sans-serif" font-size="70" font-weight="760">Reading Flow</text>
  <text x="564" y="372" fill="#4b5563" font-family="Inter, Arial, sans-serif" font-size="30">A reading dashboard inside your Zotero library</text>
  <text x="564" y="430" fill="#2f6f5f" font-family="Inter, Arial, sans-serif" font-size="24">progress / status / last read / resume reading</text>
</svg>
