<svg xmlns="http://www.w3.org/2000/svg" viewBox="0 0 1280 640">
  <defs>
    <pattern id="grid" width="40" height="40" patternUnits="userSpaceOnUse">
      <path d="M40 0H0v40" fill="none" stroke="#dfe5ed" stroke-width="1"/>
    </pattern>
    <linearGradient id="panel" x1="80" y1="80" x2="432" y2="560" gradientUnits="userSpaceOnUse">
      <stop offset="0" stop-color="#17243a"/>
      <stop offset="1" stop-color="#285f50"/>
    </linearGradient>
  </defs>
  <rect width="1280" height="640" fill="#eef2f6"/>
  <rect x="80" y="80" width="1120" height="480" rx="22" fill="#ffffff"/>
  <rect x="80" y="80" width="1120" height="480" rx="22" fill="url(#grid)" opacity="0.42"/>
  <rect x="80" y="80" width="354" height="480" rx="22" fill="url(#panel)"/>
  <path d="M434 80v480" stroke="#d9dee8" stroke-width="2"/>
  <text x="488" y="146" fill="#667085" font-family="Inter, Arial, sans-serif" font-size="22">Moonweave Research</text>
  <g transform="translate(98 154) scale(.72)">
    <rect x="92" y="96" width="328" height="320" rx="34" fill="#ffffff" stroke="#111827" stroke-width="24"/>
    <path d="M204 96v320M310 96v320" stroke="#cfd6e2" stroke-width="16"/>
    <rect x="130" y="146" width="42" height="224" rx="14" fill="#2f5f9f"/>
    <rect x="236" y="146" width="42" height="154" rx="14" fill="#667085"/>
    <rect x="342" y="146" width="42" height="86" rx="14" fill="#2f6f5f"/>
    <path d="M130 382h254" stroke="#2f6f5f" stroke-width="18" stroke-linecap="round"/>
    <circle cx="172" cy="382" r="18" fill="#ffffff" stroke="#2f5f9f" stroke-width="10"/>
    <circle cx="278" cy="382" r="18" fill="#ffffff" stroke="#667085" stroke-width="10"/>
    <circle cx="384" cy="382" r="18" fill="#ffffff" stroke="#2f6f5f" stroke-width="10"/>
  </g>
  <text x="488" y="252" fill="#111827" font-family="Inter, Arial, sans-serif" font-size="72" font-weight="760">Zotero</text>
  <text x="488" y="326" fill="#111827" font-family="Inter, Arial, sans-serif" font-size="72" font-weight="760">Reading Flow</text>
  <text x="492" y="388" fill="#4b5563" font-family="Inter, Arial, sans-serif" font-size="30">A reading dashboard inside your Zotero library</text>
  <text x="492" y="444" fill="#2f6f5f" font-family="Inter, Arial, sans-serif" font-size="25">progress / status / last read / resume reading</text>
</svg>
